HIERARCHY
ROOT Hips
{
	OFFSET 0.00 0.00 0.00
	CHANNELS 6 Xposition Yposition Zposition Xrotation Yrotation Zrotation
	JOINT RightUpLeg
	{
		OFFSET -4.47808 0.00000 0.00000
		CHANNELS 3 Xrotation Yrotation Zrotation
		JOINT RightLeg
		{
			OFFSET 0.00000 -16.40577 0.00000
			CHANNELS 3 Xrotation Yrotation Zrotation
			JOINT RightFoot
			{
				OFFSET 0.00000 -14.64414 0.00000
				CHANNELS 3 Xrotation Yrotation Zrotation
				JOINT RightToeBase
				{
					OFFSET 0.00000 -1.50274 5.60831
					CHANNELS 3 Xrotation Yrotation Zrotation
					End Site
					{
						OFFSET 0.00000 0.00000 2.95275
					}
				}
			}
		}
	}
	JOINT LeftUpLeg
	{
		OFFSET 4.47808 0.00000 0.00000
		CHANNELS 3 Xrotation Yrotation Zrotation
		JOINT LeftLeg
		{
			OFFSET 0.00000 -16.40577 0.00000
			CHANNELS 3 Xrotation Yrotation Zrotation
			JOINT LeftFoot
			{
				OFFSET 0.00000 -14.64414 0.00000
				CHANNELS 3 Xrotation Yrotation Zrotation
				JOINT LeftToeBase
				{
					OFFSET 0.00000 -1.50274 5.60831
					CHANNELS 3 Xrotation Yrotation Zrotation
					End Site
					{
						OFFSET 0.00000 0.00000 2.95275
					}
				}
			}
		}
	}
	JOINT Spine
	{
		OFFSET 0.00000 6.06821 0.00000
		CHANNELS 3 Xrotation Yrotation Zrotation
		JOINT RightShoulder
		{
			OFFSET 0.00000 10.01392 0.00000
			CHANNELS 3 Xrotation Yrotation Zrotation
			JOINT RightArm
			{
				OFFSET -7.19022 0.00000 0.00000
				CHANNELS 3 Xrotation Yrotation Zrotation
				JOINT RightForeArm
				{
					OFFSET -10.17747 0.00000 0.00000
					CHANNELS 3 Yrotation Zrotation Xrotation
					JOINT RightHand
					{
						OFFSET -8.39211 0.00000 0.00000
						CHANNELS 3 Xrotation Yrotation Zrotation
						End Site
						{
							OFFSET -3.93700 0.00000 0.00000
						}
						JOINT RightHandThumb1
						{
							OFFSET 0.00000 0.00000 0.00000
							CHANNELS 3 Xrotation Zrotation Yrotation
							End Site
							{
								OFFSET 0.00000 0.00000 3.93700
							}
						}
					}
				}
			}
		}
		JOINT LeftShoulder
		{
			OFFSET 0.00000 10.01392 0.00000
			CHANNELS 3 Xrotation Yrotation Zrotation
			JOINT LeftArm
			{
				OFFSET 7.19022 0.00000 0.00000
				CHANNELS 3 Xrotation Yrotation Zrotation
				JOINT LeftForeArm
				{
					OFFSET 10.17747 0.00000 0.00000
					CHANNELS 3 Yrotation Zrotation Xrotation
					JOINT LeftHand
					{
						OFFSET 8.39211 0.00000 0.00000
						CHANNELS 3 Xrotation Yrotation Zrotation
						End Site
						{
							OFFSET 3.93700 0.00000 0.00000
						}
						JOINT LeftHandThumb1
						{
							OFFSET 0.00000 0.00000 0.00000
							CHANNELS 3 Xrotation Zrotation Yrotation
							End Site
							{
								OFFSET 0.00000 0.00000 3.93700
							}
						}
					}
				}
			}
		}
		JOINT Head
		{
			OFFSET 0.00000 15.77748 0.00000
			CHANNELS 3 Xrotation Yrotation Zrotation
			End Site
			{
				OFFSET 0.00000 4.52755 0.00000
			}
		}
	}
}
MOTION
Frames: 20
Frame Time: 0.008333
 -10.6105 13.1647 5.8657 44.0096 -18.6317 45.7640 -91.6840 37.3667 -51.1555 10.9499 0.0000 0.0000 14.3521 -11.0014 -4.0941 -9.8996 -0.0000 -0.0000 -34.4372 12.1365 38.2147 25.8823 -0.0000 -0.0000 -1.0408 37.6076 -68.7956 19.3150 0.0000 -0.0000 24.9881 -21.7707 13.4350 4.8166 -4.9077 -2.0603 -35.0329 32.6790 76.0215 22.0678 0.0000 -21.5769 0.3545 4.0184 -5.0452 32.8623 0.0000 -24.3270 -22.0877 -8.4347 25.1595 -55.1021 -27.0198 -110.5265 -13.8802 0.0000 30.7196 -0.6372 8.1230 4.5001 33.1476 -0.0000 26.2537 -28.6347 16.6688 0.4602
 -10.6189 13.1216 5.8201 44.0428 -18.5640 45.5847 -91.6472 37.4891 -51.2049 11.1888 0.0000 0.0000 14.4384 -11.1188 -4.0639 -9.8601 -0.0000 0.0000 -34.5691 11.8546 38.4647 25.9840 -0.0000 -0.0000 -1.0241 37.6484 -68.9208 19.3278 -0.0000 0.0000 24.8981 -21.6784 13.3385 4.7959 -4.9483 -2.0245 -34.8020 32.6798 76.0370 22.2289 0.0000 -21.7209 0.3447 4.0292 -4.8945 32.8623 0.0000 -24.3270 -22.0563 -8.3138 25.2246 -55.1447 -27.0686 -110.6423 -14.1391 0.0000 30.9080 -0.6420 8.2407 4.4705 33.1476 -0.0000 26.2537 -28.7009 16.7892 0.5288
 -10.6263 13.0769 5.7688 44.0563 -18.4406 45.3507 -91.5421 37.6004 -51.3467 11.4320 0.0000 0.0000 14.4761 -11.3213 -3.8210 -10.1366 0.0000 0.0000 -34.7368 11.4544 38.7254 26.1297 -0.0000 -0.0000 -1.0512 37.6667 -69.0087 19.2916 -0.0000 0.0000 24.7984 -21.6123 13.2947 4.8059 -4.9986 -1.9809 -34.5657 32.6892 76.0052 22.4210 0.0000 -21.8784 0.3224 4.0200 -4.5894 32.8623 0.0000 -24.3270 -21.9956 -8.1982 25.3449 -55.2011 -27.0315 -110.7697 -14.4122 0.0000 31.3281 -0.6369 8.3380 4.3837 33.1476 -0.0000 26.2537 -28.7692 16.9339 0.6519
 -10.6353 13.0289 5.7129 44.1176 -18.3358 45.1002 -91.5163 37.6500 -51.3962 11.6328 -0.0000 -0.0000 14.5712 -11.5399 -3.5753 -10.3999 -0.0000 0.0000 -35.0584 11.1798 39.1171 26.3132 -0.0000 0.0000 -0.9397 37.5924 -69.2611 19.4199 0.0000 -0.0000 24.6646 -21.5110 13.2668 4.9424 -5.0590 -1.9297 -34.4403 32.7503 75.9617 22.6134 0.0000 -22.0405 0.2958 3.9808 -4.2535 32.8623 0.0000 -24.3270 -21.9117 -8.0594 25.4043 -55.3101 -27.2361 -110.8847 -14.7003 0.0000 31.2995 -0.6735 8.3934 4.6043 33.1476 -0.0000 26.2537 -28.7916 17.1120 0.7484
 -10.6420 12.9795 5.6642 44.1032 -18.2532 44.9169 -91.3909 37.8070 -51.5311 11.8677 0.0000 -0.0000 14.7044 -11.6291 -3.2423 -10.5507 -0.0000 -0.0000 -35.0840 10.8288 39.3158 26.3420 -0.0000 -0.0000 -0.8473 37.6923 -69.5717 19.5914 -0.0000 0.0000 24.5617 -21.4734 13.1425 4.9741 -5.1129 -1.8696 -34.2043 32.7420 75.9163 22.8147 0.0000 -22.1500 0.2704 4.0234 -3.8476 32.8623 0.0000 -24.3270 -21.7983 -7.9433 25.4609 -55.2944 -27.2748 -110.9284 -15.0967 0.0000 31.4780 -0.7000 8.4878 4.7323 33.1476 -0.0000 26.2537 -28.8075 17.2728 0.8407
 -10.6491 12.9299 5.6137 44.1101 -18.1789 44.7142 -91.2952 37.9203 -51.6368 12.0927 -0.0000 -0.0000 14.8246 -11.6658 -3.0259 -10.6533 -0.0000 0.0000 -35.2605 10.5887 39.6093 26.4320 -0.0000 0.0000 -0.8101 37.6212 -69.6722 19.5330 0.0000 -0.0000 24.4822 -21.3963 13.0661 4.9953 -5.2072 -1.8442 -33.9917 32.8023 75.8940 23.0241 0.0000 -22.2919 0.2372 3.9992 -3.3971 32.8623 0.0000 -24.3270 -21.7584 -7.7961 25.4896 -55.2745 -27.3106 -111.0088 -15.4343 0.0000 31.6187 -0.7265 8.4852 4.9121 33.1476 -0.0000 26.2537 -28.8770 17.4059 0.8697
 -10.6546 12.8807 5.5609 44.1656 -18.0867 44.5416 -91.1750 38.1064 -51.7624 12.3628 0.0000 0.0000 14.9740 -11.7693 -2.8110 -10.9865 0.0000 -0.0000 -35.5352 10.4462 39.9297 26.4975 0.0000 0.0000 -0.7225 37.4963 -69.8184 19.5454 0.0000 -0.0000 24.3628 -21.3269 12.9777 5.0333 -5.3025 -1.8369 -33.8123 32.9017 75.8995 23.2143 0.0000 -22.5483 0.2099 3.9976 -3.0081 32.8623 0.0000 -24.3270 -21.7158 -7.6063 25.5239 -55.2255 -27.4030 -111.0755 -15.9101 0.0000 31.7881 -0.7521 8.6071 5.0130 33.1476 -0.0000 26.2537 -28.9184 17.5328 0.8918
 -10.6617 12.8267 5.5037 44.1985 -18.0750 44.3670 -91.0972 38.2411 -51.7733 12.5491 -0.0000 0.0000 15.2384 -12.0620 -2.0660 -11.4790 -0.0000 -0.0000 -35.8282 10.4232 40.3198 26.5725 -0.0000 0.0000 -0.6569 37.2782 -69.8790 19.4645 0.0000 -0.0000 24.2362 -21.1989 12.7712 5.1323 -5.3084 -1.7998 -33.6251 32.8246 75.9050 23.3860 0.0000 -22.7820 0.1935 3.9566 -2.8021 32.8623 0.0000 -24.3270 -21.5669 -7.5307 25.6027 -55.2254 -27.5342 -111.0805 -16.3596 0.0000 32.0299 -0.8121 8.7837 5.3030 33.1476 -0.0000 26.2537 -28.9696 17.7702 1.0141
 -10.6639 12.7751 5.4507 44.2900 -18.0128 44.2955 -91.2234 38.3983 -51.7123 12.7189 -0.0000 -0.0000 15.5060 -12.1487 -1.8901 -11.0296 0.0000 0.0000 -36.0741 10.3586 40.5795 26.6200 0.0000 -0.0000 -0.5631 37.2064 -70.0649 19.6630 -0.0000 0.0000 24.0274 -21.1624 12.5248 5.1987 -5.2834 -1.7824 -33.4019 32.7991 75.9431 23.5686 0.0000 -23.0725 0.2002 3.9647 -2.8935 32.8623 0.0000 -24.3270 -21.4765 -7.3383 25.6610 -55.1546 -27.6096 -111.1111 -16.8422 0.0000 32.2236 -0.8280 8.8817 5.3474 33.1476 -0.0000 26.2537 -29.0485 18.0030 1.0531
 -10.6638 12.7256 5.3968 44.3379 -17.9078 44.1884 -91.2336 38.5474 -51.7803 12.8845 -0.0000 -0.0000 15.7294 -12.1949 -1.7859 -10.7885 -0.0000 -0.0000 -36.3456 10.2189 40.8213 26.7067 -0.0000 0.0000 -0.5170 37.0865 -70.1067 19.6084 -0.0000 -0.0000 23.8559 -21.0795 12.3305 5.2123 -5.3246 -1.7578 -33.1202 32.8950 75.9545 23.7482 0.0000 -23.4946 0.2266 3.9086 -3.3212 32.8623 0.0000 -24.3270 -21.3471 -7.2051 25.7740 -55.1326 -27.5250 -111.1727 -17.3227 0.0000 32.5312 -0.8450 8.8989 5.4464 33.1476 -0.0000 26.2537 -29.1874 18.1454 1.0954
 -10.6636 12.6745 5.3427 44.3903 -17.8160 44.0812 -91.2599 38.6837 -51.8324 13.0463 -0.0000 0.0000 16.0082 -12.2805 -1.4020 -10.8829 -0.0000 -0.0000 -36.6443 10.1195 41.0910 26.7949 -0.0000 -0.0000 -0.5003 36.8704 -69.9020 19.3019 0.0000 0.0000 23.6698 -20.9747 12.1392 5.3012 -5.3530 -1.7099 -32.9161 32.9599 75.9874 23.8953 0.0000 -23.8502 0.2691 3.9325 -3.9174 32.8623 0.0000 -24.3270 -21.2394 -7.0770 25.8264 -55.1084 -27.5022 -111.2245 -17.7948 0.0000 32.7587 -0.8681 8.9541 5.5601 33.1476 -0.0000 26.2537 -29.2945 18.3177 1.0721
 -10.6657 12.6189 5.2867 44.4395 -17.8167 44.0081 -91.2808 38.8728 -51.7861 13.2187 -0.0000 -0.0000 16.2853 -12.3772 -1.2327 -10.6380 0.0000 0.0000 -36.9200 10.1523 41.4111 26.8676 0.0000 -0.0000 -0.4842 36.6277 -69.6137 19.3125 -0.0000 -0.0000 23.5642 -20.8081 11.8695 5.3311 -5.3964 -1.6393 -32.7186 32.9492 76.0991 24.0647 -0.0000 -24.1980 0.3197 4.0012 -4.5723 32.8623 0.0000 -24.3270 -21.2045 -6.9573 25.9438 -55.0444 -27.5106 -111.2921 -18.3484 0.0000 32.9327 -0.8641 9.0054 5.5041 33.1476 -0.0000 26.2537 -29.4634 18.2976 1.0000
 -10.6655 12.5639 5.2350 44.4502 -17.7476 43.9406 -91.2529 39.0935 -51.8645 13.4154 -0.0000 -0.0000 16.5615 -12.4683 -1.0038 -10.5031 0.0000 0.0000 -37.0175 9.9872 41.5762 26.8624 0.0000 0.0000 -0.3600 36.6084 -69.7113 19.2993 -0.0000 -0.0000 23.4102 -20.7117 11.6522 5.4124 -5.4085 -1.6288 -32.5860 32.6489 76.2812 24.2874 -0.0000 -24.2964 0.3508 4.0579 -4.9454 32.8623 0.0000 -24.3270 -21.1189 -6.8179 25.9897 -54.9549 -27.4688 -111.3164 -18.9486 0.0000 33.1024 -0.8532 9.0762 5.3933 33.1476 -0.0000 26.2537 -29.6005 18.4628 0.8579
 -10.6613 12.5119 5.1797 44.4512 -17.6208 43.8637 -91.3447 39.2143 -51.9222 13.5537 -0.0000 -0.0000 16.8286 -12.5867 -0.7256 -10.1039 -0.0000 0.0000 -37.2261 9.7894 41.7287 26.9386 -0.0000 0.0000 -0.2386 36.5426 -69.8977 19.2489 -0.0000 0.0000 23.2397 -20.6415 11.4592 5.5216 -5.4306 -1.6250 -32.4593 32.3442 76.4375 24.6013 0.0000 -24.3372 0.3721 4.0298 -5.2800 32.8623 0.0000 -24.3270 -20.9937 -6.6894 26.0421 -54.9072 -27.3759 -111.3421 -19.5228 0.0000 33.3955 -0.8545 9.1910 5.3348 33.1476 -0.0000 26.2537 -29.7660 18.6105 0.7539
 -10.6610 12.4525 5.1347 44.3528 -17.5647 43.7941 -91.5384 39.3174 -51.9127 13.8619 -0.0000 0.0000 16.9954 -12.4055 -0.8905 -9.8338 -0.0000 0.0000 -37.3413 9.6957 41.8848 26.9761 -0.0000 0.0000 -0.1122 36.3950 -70.2333 19.3859 -0.0000 -0.0000 23.2128 -20.6800 11.2696 5.5873 -5.4180 -1.6301 -32.2826 32.0963 76.5741 25.0055 0.0000 -24.4230 0.3900 3.9994 -5.5742 32.8623 0.0000 -24.3270 -20.9919 -6.4716 26.1096 -54.7502 -27.3499 -111.3868 -20.1523 0.0000 33.1835 -0.9966 8.7419 6.5298 33.1476 -0.0000 26.2537 -29.9532 18.7410 0.6257
 -10.6690 12.3868 5.0875 44.1523 -17.4873 43.5667 -92.1529 39.1404 -51.7080 14.4637 -0.0000 0.0000 16.9246 -11.9308 -1.0612 -9.9128 0.0000 0.0000 -37.4418 9.4331 42.1201 27.0622 -0.0000 0.0000 0.0318 36.1986 -70.3739 19.3665 -0.0000 0.0000 23.3203 -20.6884 11.2429 5.6718 -5.5166 -1.5759 -32.0917 32.1097 76.6066 25.4238 0.0000 -24.6397 0.4221 4.0315 -5.9816 32.8623 0.0000 -24.3270 -21.0475 -6.3303 26.1580 -54.6095 -27.3443 -111.4604 -20.7241 0.0000 33.4072 -1.0093 8.7320 6.6193 33.1476 -0.0000 26.2537 -30.1976 18.6875 0.4609
 -10.6633 12.3320 5.0359 44.1064 -17.3581 43.5147 -92.2689 39.3309 -51.7927 14.7493 0.0000 0.0000 17.0201 -11.8210 -0.7659 -9.4678 0.0000 -0.0000 -37.6029 9.2346 42.2245 27.1226 -0.0000 -0.0000 0.1724 36.1147 -70.4859 19.2576 -0.0000 0.0000 23.1756 -20.7012 11.0097 5.8668 -5.5853 -1.5203 -31.9739 32.0349 76.6260 25.7935 0.0000 -24.8015 0.4243 4.0128 -6.0410 32.8623 0.0000 -24.3270 -20.9742 -6.2002 26.2160 -54.5149 -27.3196 -111.4762 -21.3042 0.0000 33.7772 -0.9892 8.8822 6.3808 33.1476 -0.0000 26.2537 -30.3643 18.8168 0.4661
 -10.6567 12.2753 4.9818 44.0119 -17.2231 43.4286 -92.0740 39.5863 -52.0738 14.9269 0.0000 -0.0000 17.2281 -11.7723 -0.6943 -9.4285 -0.0000 0.0000 -37.7591 8.9979 42.3353 27.1943 -0.0000 -0.0000 0.2964 35.9969 -70.5284 19.1820 0.0000 -0.0000 23.0740 -20.6618 10.8012 5.9771 -5.7513 -1.5040 -31.8354 32.0296 76.6906 26.0791 0.0000 -24.8979 0.4269 3.9530 -6.1692 32.8623 0.0000 -24.3270 -20.8592 -6.1238 26.2731 -54.5464 -27.3427 -111.5128 -21.8447 0.0000 33.9187 -0.9857 9.0505 6.2420 33.1476 -0.0000 26.2537 -30.5220 18.7788 0.4455
 -10.6466 12.2210 4.9315 43.9345 -17.0138 43.3344 -91.9651 39.7850 -52.3751 15.0913 0.0000 -0.0000 17.4459 -11.7780 -0.3390 -9.4733 -0.0000 0.0000 -37.9655 8.7129 42.4076 27.2547 -0.0000 0.0000 0.3987 35.9525 -70.4821 19.2143 -0.0000 0.0000 22.9273 -20.7834 10.7315 5.9462 -5.8187 -1.6133 -31.6097 32.0324 76.7963 26.2870 0.0000 -24.9207 0.4259 3.8678 -6.2881 32.8623 0.0000 -24.3270 -20.8681 -5.9897 26.2643 -54.3078 -27.3651 -111.4824 -22.4942 0.0000 34.1087 -0.9872 9.2135 6.1426 33.1476 -0.0000 26.2537 -30.5617 18.9437 0.2748
 -10.6417 12.1661 4.8725 43.8974 -16.8293 43.1663 -91.8903 39.9107 -52.5985 15.2721 -0.0000 0.0000 17.5280 -11.6903 -0.2634 -9.5633 -0.0000 0.0000 -38.2493 8.4296 42.6083 27.3421 -0.0000 -0.0000 0.5227 35.8062 -70.3480 18.9470 0.0000 -0.0000 22.7950 -20.8362 10.7193 6.0262 -5.8819 -1.6991 -31.5044 31.9910 76.8871 26.4629 0.0000 -25.0654 0.3993 3.6755 -6.2040 32.8623 0.0000 -24.3270 -20.8392 -5.7816 26.1761 -54.2688 -27.7055 -111.4292 -23.1402 0.0000 34.0735 -0.9842 9.4024 6.0028 33.1476 -0.0000 26.2537 -30.5488 19.2839 0.3134
